<svg width="16" height="34" viewBox="0 0 16 34" fill="none" xmlns="http://www.w3.org/2000/svg">
<path d="M9.00088 28.6333C9.00088 29.2054 8.56434 29.7229 7.93679 29.7229C7.5548 29.7229 6.89995 29.4778 6.89995 28.6333V5.99533C6.89995 5.12361 7.5548 4.90565 7.93679 4.90565C8.56434 4.90565 9.00088 5.42326 9.00088 5.99533V28.6333ZM0.242432 28.0612C0.242432 30.404 0.542553 33.9999 5.18099 33.9999H10.7199C15.3583 33.9999 15.6584 30.404 15.6584 28.0612V6.70361C15.6584 4.38806 15.3583 0.764893 10.7199 0.764893H5.18099C0.542553 0.764893 0.242432 4.38806 0.242432 6.70361V28.0612Z" fill="white" fill-opacity="0.5"/>
</svg>
