<svg width="17" height="34" viewBox="0 0 17 34" fill="none" xmlns="http://www.w3.org/2000/svg">
<path d="M7.55352 22.3676V28.6333C7.55352 29.4778 8.20835 29.7229 8.59033 29.7229C9.2179 29.7229 9.65445 29.2054 9.65445 28.6333V20.8966C9.65445 19.8614 9.46345 18.7173 6.98052 18.7173H4.27931V15.0669H7.08966C8.97232 15.0669 9.65445 14.631 9.65445 12.5878V5.99533C9.65445 5.42326 9.2179 4.90565 8.59033 4.90565C8.20835 4.90565 7.55352 5.12361 7.55352 5.99533V11.4164H0.895996V6.70361C0.895996 4.38806 1.16883 0.764893 5.83456 0.764893H11.3461C16.0118 0.764893 16.312 4.38806 16.312 6.70361V12.0158C16.312 15.6389 13.7745 16.6196 11.7827 16.5379V16.8648C16.2574 16.7558 16.312 20.1883 16.312 21.3597V28.0612C16.312 30.404 16.0118 33.9999 11.3461 33.9999H5.83456C1.16883 33.9999 0.895996 30.404 0.895996 28.0612V22.3676H7.55352Z" fill="white" fill-opacity="0.5"/>
</svg>
