<svg width="7" height="7" viewBox="0 0 7 7" fill="none" xmlns="http://www.w3.org/2000/svg">
<path d="M5.27194 2.62952H4.32762V1.68519C4.32762 1.11862 3.86838 0.659241 3.30168 0.659241C2.73498 0.659241 2.27574 1.11862 2.27574 1.68519V2.62952H1.33142C0.76472 2.62952 0.305481 3.08889 0.305481 3.65546C0.305481 4.22203 0.76472 4.68141 1.33142 4.68141H2.27574V5.62574C2.27574 6.19231 2.73498 6.65169 3.30168 6.65169C3.86838 6.65169 4.32762 6.19231 4.32762 5.62574V4.68141H5.27194C5.83864 4.68141 6.29788 4.22203 6.29788 3.65546C6.29788 3.08889 5.83864 2.62952 5.27194 2.62952Z" fill="white"/>
</svg>
