<svg width="7" height="7" viewBox="0 0 7 7" fill="none" xmlns="http://www.w3.org/2000/svg">
<path d="M5.66726 2.62952H4.72295V1.68519C4.72295 1.11862 4.26371 0.659241 3.69701 0.659241C3.13031 0.659241 2.67106 1.11862 2.67106 1.68519V2.62952H1.72675C1.16004 2.62952 0.700806 3.08889 0.700806 3.65546C0.700806 4.22203 1.16004 4.68141 1.72675 4.68141H2.67106V5.62574C2.67106 6.19231 3.13031 6.65169 3.69701 6.65169C4.26371 6.65169 4.72295 6.19231 4.72295 5.62574V4.68141H5.66726C6.23397 4.68141 6.6932 4.22203 6.6932 3.65546C6.6932 3.08889 6.23397 2.62952 5.66726 2.62952Z" fill="white"/>
</svg>
