<svg width="7" height="7" viewBox="0 0 7 7" fill="none" xmlns="http://www.w3.org/2000/svg">
<path d="M5.66726 2.53794H4.72295V1.59362C4.72295 1.02706 4.26371 0.567688 3.69701 0.567688C3.13031 0.567688 2.67106 1.02706 2.67106 1.59362V2.53794H1.72675C1.16004 2.53794 0.700806 2.99732 0.700806 3.56388C0.700806 4.13044 1.16004 4.58982 1.72675 4.58982H2.67106V5.53427C2.67106 6.10083 3.13031 6.56021 3.69701 6.56021C4.26371 6.56021 4.72295 6.10083 4.72295 5.53427V4.58982H5.66726C6.23397 4.58982 6.6932 4.13044 6.6932 3.56388C6.6932 2.99732 6.23397 2.53794 5.66726 2.53794Z" fill="white"/>
</svg>
